<svg width="200" height="199" viewBox="0 0 200 199" fill="none" xmlns="http://www.w3.org/2000/svg">
<path d="M70.3518 67.5879L53.0151 0L93.7186 54.5226L120.352 7.28643L115.327 64.5729L152.01 38.9447L132.412 79.8995L200 76.8844L139.95 110.804L174.874 155.528L126.131 137.94L127.889 188.442L98.995 145.98L78.1407 198.744L75.3769 141.206L24.6231 171.859L55.2764 115.829L0 103.266L57.5377 90.9548L11.0553 47.7387L70.3518 67.5879Z" fill="#EE4D16"/>
<path d="M77.3819 96.4674L48.9899 71.8442L83.9145 80.1357L75.1206 45.9648L95.9748 73.1005L109.543 47.2211V78.1256L129.894 66.5679L119.593 89.9347L158.538 91.191L123.362 108.276L140.447 133.402L114.568 121.844V147.975L100.497 127.372L86.4271 155.01V123.854L52.2563 146.467L73.8643 112.297L41.7035 104.508L77.3819 96.4674Z" fill="#FECE30"/>
<path d="M88.6935 78.623L91.9599 93.1959L77.6383 89.6783L88.6935 99.4773L75.377 102.995L88.6935 106.261L79.1458 121.085L93.9699 111.286V124.352L99.7488 112.794L105.528 121.085V110.03L115.578 114.804L109.548 104.502L123.116 98.221L108.04 96.9648L111.307 87.6683L103.266 93.1959V78.623L97.4875 89.6783L88.6935 78.623Z" fill="white"/>
</svg>
