<svg width="194" height="192" viewBox="0 0 194 192" fill="none" xmlns="http://www.w3.org/2000/svg">
<path d="M5.5 0L5.96069 2.44352L7.12115 0.244349L6.84113 2.71511L8.59826 0.955687L7.60241 3.23414L9.80007 2.07081L8.17688 3.9545L10.6198 3.49062L8.5135 4.81219L10.9846 5.08898L8.58236 5.73099L10.8621 6.72387L8.37733 6.62927L10.2631 8.25L7.91664 7.42721L9.24095 9.53179L7.24122 8.0539L7.88636 10.4553L6.41109 8.45368L6.31973 10.9386L5.5 8.591L4.68027 10.9386L4.58891 8.45368L3.11364 10.4553L3.75878 8.0539L1.75905 9.53179L3.08336 7.42721L0.73686 8.25L2.62267 6.62927L0.137897 6.72387L2.41764 5.73099L0.015379 5.08898L2.4865 4.81219L0.380194 3.49062L2.82312 3.9545L1.19993 2.07081L3.39759 3.23414L2.40174 0.955687L4.15887 2.71511L3.87885 0.244349L5.03931 2.44352L5.5 0Z" fill="white"/>
<path d="M87.5 93L87.9607 95.4435L89.1212 93.2443L88.8411 95.7151L90.5983 93.9557L89.6024 96.2341L91.8001 95.0708L90.1769 96.9545L92.6198 96.4906L90.5135 97.8122L92.9846 98.089L90.5824 98.731L92.8621 99.7239L90.3773 99.6293L92.2631 101.25L89.9166 100.427L91.2409 102.532L89.2412 101.054L89.8864 103.455L88.4111 101.454L88.3197 103.939L87.5 101.591L86.6803 103.939L86.5889 101.454L85.1136 103.455L85.7588 101.054L83.759 102.532L85.0834 100.427L82.7369 101.25L84.6227 99.6293L82.1379 99.7239L84.4176 98.731L82.0154 98.089L84.4865 97.8122L82.3802 96.4906L84.8231 96.9545L83.1999 95.0708L85.3976 96.2341L84.4017 93.9557L86.1589 95.7151L85.8788 93.2443L87.0393 95.4435L87.5 93Z" fill="white"/>
<path d="M67.5 60L67.9607 62.4435L69.1212 60.2443L68.8411 62.7151L70.5983 60.9557L69.6024 63.2341L71.8001 62.0708L70.1769 63.9545L72.6198 63.4906L70.5135 64.8122L72.9846 65.089L70.5824 65.731L72.8621 66.7239L70.3773 66.6293L72.2631 68.25L69.9166 67.4272L71.2409 69.5318L69.2412 68.0539L69.8864 70.4553L68.4111 68.4537L68.3197 70.9386L67.5 68.591L66.6803 70.9386L66.5889 68.4537L65.1136 70.4553L65.7588 68.0539L63.759 69.5318L65.0834 67.4272L62.7369 68.25L64.6227 66.6293L62.1379 66.7239L64.4176 65.731L62.0154 65.089L64.4865 64.8122L62.3802 63.4906L64.8231 63.9545L63.1999 62.0708L65.3976 63.2341L64.4017 60.9557L66.1589 62.7151L65.8788 60.2443L67.0393 62.4435L67.5 60Z" fill="white"/>
<path d="M106.5 125L106.961 127.444L108.121 125.244L107.841 127.715L109.598 125.956L108.602 128.234L110.8 127.071L109.177 128.955L111.62 128.491L109.514 129.812L111.985 130.089L109.582 130.731L111.862 131.724L109.377 131.629L111.263 133.25L108.917 132.427L110.241 134.532L108.241 133.054L108.886 135.455L107.411 133.454L107.32 135.939L106.5 133.591L105.68 135.939L105.589 133.454L104.114 135.455L104.759 133.054L102.759 134.532L104.083 132.427L101.737 133.25L103.623 131.629L101.138 131.724L103.418 130.731L101.015 130.089L103.486 129.812L101.38 128.491L103.823 128.955L102.2 127.071L104.398 128.234L103.402 125.956L105.159 127.715L104.879 125.244L106.039 127.444L106.5 125Z" fill="white"/>
<path d="M82.5 122L82.9607 124.444L84.1212 122.244L83.8411 124.715L85.5983 122.956L84.6024 125.234L86.8001 124.071L85.1769 125.955L87.6198 125.491L85.5135 126.812L87.9846 127.089L85.5824 127.731L87.8621 128.724L85.3773 128.629L87.2631 130.25L84.9166 129.427L86.2409 131.532L84.2412 130.054L84.8864 132.455L83.4111 130.454L83.3197 132.939L82.5 130.591L81.6803 132.939L81.5889 130.454L80.1136 132.455L80.7588 130.054L78.759 131.532L80.0834 129.427L77.7369 130.25L79.6227 128.629L77.1379 128.724L79.4176 127.731L77.0154 127.089L79.4865 126.812L77.3802 125.491L79.8231 125.955L78.1999 124.071L80.3976 125.234L79.4017 122.956L81.1589 124.715L80.8788 122.244L82.0393 124.444L82.5 122Z" fill="white"/>
<path d="M101.5 157L101.961 159.444L103.121 157.244L102.841 159.715L104.598 157.956L103.602 160.234L105.8 159.071L104.177 160.955L106.62 160.491L104.514 161.812L106.985 162.089L104.582 162.731L106.862 163.724L104.377 163.629L106.263 165.25L103.917 164.427L105.241 166.532L103.241 165.054L103.886 167.455L102.411 165.454L102.32 167.939L101.5 165.591L100.68 167.939L100.589 165.454L99.1136 167.455L99.7588 165.054L97.759 166.532L99.0834 164.427L96.7369 165.25L98.6227 163.629L96.1379 163.724L98.4176 162.731L96.0154 162.089L98.4865 161.812L96.3802 160.491L98.8231 160.955L97.1999 159.071L99.3976 160.234L98.4017 157.956L100.159 159.715L99.8788 157.244L101.039 159.444L101.5 157Z" fill="white"/>
<path d="M48.5 146L48.9607 148.444L50.1212 146.244L49.8411 148.715L51.5983 146.956L50.6024 149.234L52.8001 148.071L51.1769 149.955L53.6198 149.491L51.5135 150.812L53.9846 151.089L51.5824 151.731L53.8621 152.724L51.3773 152.629L53.2631 154.25L50.9166 153.427L52.2409 155.532L50.2412 154.054L50.8864 156.455L49.4111 154.454L49.3197 156.939L48.5 154.591L47.6803 156.939L47.5889 154.454L46.1136 156.455L46.7588 154.054L44.759 155.532L46.0834 153.427L43.7369 154.25L45.6227 152.629L43.1379 152.724L45.4176 151.731L43.0154 151.089L45.4865 150.812L43.3802 149.491L45.8231 149.955L44.1999 148.071L46.3976 149.234L45.4017 146.956L47.1589 148.715L46.8788 146.244L48.0393 148.444L48.5 146Z" fill="white"/>
<path d="M26.5 82L26.9607 84.4435L28.1212 82.2443L27.8411 84.7151L29.5983 82.9557L28.6024 85.2341L30.8001 84.0708L29.1769 85.9545L31.6198 85.4906L29.5135 86.8122L31.9846 87.089L29.5824 87.731L31.8621 88.7239L29.3773 88.6293L31.2631 90.25L28.9166 89.4272L30.2409 91.5318L28.2412 90.0539L28.8864 92.4553L27.4111 90.4537L27.3197 92.9386L26.5 90.591L25.6803 92.9386L25.5889 90.4537L24.1136 92.4553L24.7588 90.0539L22.759 91.5318L24.0834 89.4272L21.7369 90.25L23.6227 88.6293L21.1379 88.7239L23.4176 87.731L21.0154 87.089L23.4865 86.8122L21.3802 85.4906L23.8231 85.9545L22.1999 84.0708L24.3976 85.2341L23.4017 82.9557L25.1589 84.7151L24.8788 82.2443L26.0393 84.4435L26.5 82Z" fill="white"/>
<path d="M37.5 25L37.9607 27.4435L39.1212 25.2443L38.8411 27.7151L40.5983 25.9557L39.6024 28.2341L41.8001 27.0708L40.1769 28.9545L42.6198 28.4906L40.5135 29.8122L42.9846 30.089L40.5824 30.731L42.8621 31.7239L40.3773 31.6293L42.2631 33.25L39.9166 32.4272L41.2409 34.5318L39.2412 33.0539L39.8864 35.4553L38.4111 33.4537L38.3197 35.9386L37.5 33.591L36.6803 35.9386L36.5889 33.4537L35.1136 35.4553L35.7588 33.0539L33.759 34.5318L35.0834 32.4272L32.7369 33.25L34.6227 31.6293L32.1379 31.7239L34.4176 30.731L32.0154 30.089L34.4865 29.8122L32.3802 28.4906L34.8231 28.9545L33.1999 27.0708L35.3976 28.2341L34.4017 25.9557L36.1589 27.7151L35.8788 25.2443L37.0393 27.4435L37.5 25Z" fill="white"/>
<path d="M98.5 23L98.9607 25.4435L100.121 23.2443L99.8411 25.7151L101.598 23.9557L100.602 26.2341L102.8 25.0708L101.177 26.9545L103.62 26.4906L101.514 27.8122L103.985 28.089L101.582 28.731L103.862 29.7239L101.377 29.6293L103.263 31.25L100.917 30.4272L102.241 32.5318L100.241 31.0539L100.886 33.4553L99.4111 31.4537L99.3197 33.9386L98.5 31.591L97.6803 33.9386L97.5889 31.4537L96.1136 33.4553L96.7588 31.0539L94.759 32.5318L96.0834 30.4272L93.7369 31.25L95.6227 29.6293L93.1379 29.7239L95.4176 28.731L93.0154 28.089L95.4865 27.8122L93.3802 26.4906L95.8231 26.9545L94.1999 25.0708L96.3976 26.2341L95.4017 23.9557L97.1589 25.7151L96.8788 23.2443L98.0393 25.4435L98.5 23Z" fill="white"/>
<path d="M172.5 82L172.961 84.4435L174.121 82.2443L173.841 84.7151L175.598 82.9557L174.602 85.2341L176.8 84.0708L175.177 85.9545L177.62 85.4906L175.514 86.8122L177.985 87.089L175.582 87.731L177.862 88.7239L175.377 88.6293L177.263 90.25L174.917 89.4272L176.241 91.5318L174.241 90.0539L174.886 92.4553L173.411 90.4537L173.32 92.9386L172.5 90.591L171.68 92.9386L171.589 90.4537L170.114 92.4553L170.759 90.0539L168.759 91.5318L170.083 89.4272L167.737 90.25L169.623 88.6293L167.138 88.7239L169.418 87.731L167.015 87.089L169.486 86.8122L167.38 85.4906L169.823 85.9545L168.2 84.0708L170.398 85.2341L169.402 82.9557L171.159 84.7151L170.879 82.2443L172.039 84.4435L172.5 82Z" fill="white"/>
<path d="M154.5 146L154.961 148.444L156.121 146.244L155.841 148.715L157.598 146.956L156.602 149.234L158.8 148.071L157.177 149.955L159.62 149.491L157.514 150.812L159.985 151.089L157.582 151.731L159.862 152.724L157.377 152.629L159.263 154.25L156.917 153.427L158.241 155.532L156.241 154.054L156.886 156.455L155.411 154.454L155.32 156.939L154.5 154.591L153.68 156.939L153.589 154.454L152.114 156.455L152.759 154.054L150.759 155.532L152.083 153.427L149.737 154.25L151.623 152.629L149.138 152.724L151.418 151.731L149.015 151.089L151.486 150.812L149.38 149.491L151.823 149.955L150.2 148.071L152.398 149.234L151.402 146.956L153.159 148.715L152.879 146.244L154.039 148.444L154.5 146Z" fill="white"/>
<path d="M163.5 34L163.961 36.4435L165.121 34.2443L164.841 36.7151L166.598 34.9557L165.602 37.2341L167.8 36.0708L166.177 37.9545L168.62 37.4906L166.514 38.8122L168.985 39.089L166.582 39.731L168.862 40.7239L166.377 40.6293L168.263 42.25L165.917 41.4272L167.241 43.5318L165.241 42.0539L165.886 44.4553L164.411 42.4537L164.32 44.9386L163.5 42.591L162.68 44.9386L162.589 42.4537L161.114 44.4553L161.759 42.0539L159.759 43.5318L161.083 41.4272L158.737 42.25L160.623 40.6293L158.138 40.7239L160.418 39.731L158.015 39.089L160.486 38.8122L158.38 37.4906L160.823 37.9545L159.2 36.0708L161.398 37.2341L160.402 34.9557L162.159 36.7151L161.879 34.2443L163.039 36.4435L163.5 34Z" fill="white"/>
<path d="M61.5 84L61.9607 86.4435L63.1212 84.2443L62.8411 86.7151L64.5983 84.9557L63.6024 87.2341L65.8001 86.0708L64.1769 87.9545L66.6198 87.4906L64.5135 88.8122L66.9846 89.089L64.5824 89.731L66.8621 90.7239L64.3773 90.6293L66.2631 92.25L63.9166 91.4272L65.2409 93.5318L63.2412 92.0539L63.8864 94.4553L62.4111 92.4537L62.3197 94.9386L61.5 92.591L60.6803 94.9386L60.5889 92.4537L59.1136 94.4553L59.7588 92.0539L57.759 93.5318L59.0834 91.4272L56.7369 92.25L58.6227 90.6293L56.1379 90.7239L58.4176 89.731L56.0154 89.089L58.4865 88.8122L56.3802 87.4906L58.8231 87.9545L57.1999 86.0708L59.3976 87.2341L58.4017 84.9557L60.1589 86.7151L59.8788 84.2443L61.0393 86.4435L61.5 84Z" fill="white"/>
<path d="M87.5 76L87.9607 78.4435L89.1212 76.2443L88.8411 78.7151L90.5983 76.9557L89.6024 79.2341L91.8001 78.0708L90.1769 79.9545L92.6198 79.4906L90.5135 80.8122L92.9846 81.089L90.5824 81.731L92.8621 82.7239L90.3773 82.6293L92.2631 84.25L89.9166 83.4272L91.2409 85.5318L89.2412 84.0539L89.8864 86.4553L88.4111 84.4537L88.3197 86.9386L87.5 84.591L86.6803 86.9386L86.5889 84.4537L85.1136 86.4553L85.7588 84.0539L83.759 85.5318L85.0834 83.4272L82.7369 84.25L84.6227 82.6293L82.1379 82.7239L84.4176 81.731L82.0154 81.089L84.4865 80.8122L82.3802 79.4906L84.8231 79.9545L83.1999 78.0708L85.3976 79.2341L84.4017 76.9557L86.1589 78.7151L85.8788 76.2443L87.0393 78.4435L87.5 76Z" fill="white"/>
<path d="M117.5 52L117.961 54.4435L119.121 52.2443L118.841 54.7151L120.598 52.9557L119.602 55.2341L121.8 54.0708L120.177 55.9545L122.62 55.4906L120.514 56.8122L122.985 57.089L120.582 57.731L122.862 58.7239L120.377 58.6293L122.263 60.25L119.917 59.4272L121.241 61.5318L119.241 60.0539L119.886 62.4553L118.411 60.4537L118.32 62.9386L117.5 60.591L116.68 62.9386L116.589 60.4537L115.114 62.4553L115.759 60.0539L113.759 61.5318L115.083 59.4272L112.737 60.25L114.623 58.6293L112.138 58.7239L114.418 57.731L112.015 57.089L114.486 56.8122L112.38 55.4906L114.823 55.9545L113.2 54.0708L115.398 55.2341L114.402 52.9557L116.159 54.7151L115.879 52.2443L117.039 54.4435L117.5 52Z" fill="white"/>
<path d="M138.5 70L138.961 72.4435L140.121 70.2443L139.841 72.7151L141.598 70.9557L140.602 73.2341L142.8 72.0708L141.177 73.9545L143.62 73.4906L141.514 74.8122L143.985 75.089L141.582 75.731L143.862 76.7239L141.377 76.6293L143.263 78.25L140.917 77.4272L142.241 79.5318L140.241 78.0539L140.886 80.4553L139.411 78.4537L139.32 80.9386L138.5 78.591L137.68 80.9386L137.589 78.4537L136.114 80.4553L136.759 78.0539L134.759 79.5318L136.083 77.4272L133.737 78.25L135.623 76.6293L133.138 76.7239L135.418 75.731L133.015 75.089L135.486 74.8122L133.38 73.4906L135.823 73.9545L134.2 72.0708L136.398 73.2341L135.402 70.9557L137.159 72.7151L136.879 70.2443L138.039 72.4435L138.5 70Z" fill="white"/>
<path d="M135.5 95L135.961 97.4435L137.121 95.2443L136.841 97.7151L138.598 95.9557L137.602 98.2341L139.8 97.0708L138.177 98.9545L140.62 98.4906L138.514 99.8122L140.985 100.089L138.582 100.731L140.862 101.724L138.377 101.629L140.263 103.25L137.917 102.427L139.241 104.532L137.241 103.054L137.886 105.455L136.411 103.454L136.32 105.939L135.5 103.591L134.68 105.939L134.589 103.454L133.114 105.455L133.759 103.054L131.759 104.532L133.083 102.427L130.737 103.25L132.623 101.629L130.138 101.724L132.418 100.731L130.015 100.089L132.486 99.8122L130.38 98.4906L132.823 98.9545L131.2 97.0708L133.398 98.2341L132.402 95.9557L134.159 97.7151L133.879 95.2443L135.039 97.4435L135.5 95Z" fill="white"/>
<path d="M183.5 181L183.961 183.444L185.121 181.244L184.841 183.715L186.598 181.956L185.602 184.234L187.8 183.071L186.177 184.955L188.62 184.491L186.514 185.812L188.985 186.089L186.582 186.731L188.862 187.724L186.377 187.629L188.263 189.25L185.917 188.427L187.241 190.532L185.241 189.054L185.886 191.455L184.411 189.454L184.32 191.939L183.5 189.591L182.68 191.939L182.589 189.454L181.114 191.455L181.759 189.054L179.759 190.532L181.083 188.427L178.737 189.25L180.623 187.629L178.138 187.724L180.418 186.731L178.015 186.089L180.486 185.812L178.38 184.491L180.823 184.955L179.2 183.071L181.398 184.234L180.402 181.956L182.159 183.715L181.879 181.244L183.039 183.444L183.5 181Z" fill="white"/>
<path d="M10.5 181L10.9607 183.444L12.1212 181.244L11.8411 183.715L13.5983 181.956L12.6024 184.234L14.8001 183.071L13.1769 184.955L15.6198 184.491L13.5135 185.812L15.9846 186.089L13.5824 186.731L15.8621 187.724L13.3773 187.629L15.2631 189.25L12.9166 188.427L14.2409 190.532L12.2412 189.054L12.8864 191.455L11.4111 189.454L11.3197 191.939L10.5 189.591L9.68027 191.939L9.58891 189.454L8.11364 191.455L8.75878 189.054L6.75905 190.532L8.08336 188.427L5.73686 189.25L7.62267 187.629L5.1379 187.724L7.41764 186.731L5.01538 186.089L7.4865 185.812L5.38019 184.491L7.82312 184.955L6.19993 183.071L8.39759 184.234L7.40174 181.956L9.15887 183.715L8.87885 181.244L10.0393 183.444L10.5 181Z" fill="white"/>
<path d="M112.5 87L112.961 89.4435L114.121 87.2443L113.841 89.7151L115.598 87.9557L114.602 90.2341L116.8 89.0708L115.177 90.9545L117.62 90.4906L115.514 91.8122L117.985 92.089L115.582 92.731L117.862 93.7239L115.377 93.6293L117.263 95.25L114.917 94.4272L116.241 96.5318L114.241 95.0539L114.886 97.4553L113.411 95.4537L113.32 97.9386L112.5 95.591L111.68 97.9386L111.589 95.4537L110.114 97.4553L110.759 95.0539L108.759 96.5318L110.083 94.4272L107.737 95.25L109.623 93.6293L107.138 93.7239L109.418 92.731L107.015 92.089L109.486 91.8122L107.38 90.4906L109.823 90.9545L108.2 89.0708L110.398 90.2341L109.402 87.9557L111.159 89.7151L110.879 87.2443L112.039 89.4435L112.5 87Z" fill="white"/>
<path d="M188.5 0L188.961 2.44352L190.121 0.244349L189.841 2.71511L191.598 0.955687L190.602 3.23414L192.8 2.07081L191.177 3.9545L193.62 3.49062L191.514 4.81219L193.985 5.08898L191.582 5.73099L193.862 6.72387L191.377 6.62927L193.263 8.25L190.917 7.42721L192.241 9.53179L190.241 8.0539L190.886 10.4553L189.411 8.45368L189.32 10.9386L188.5 8.591L187.68 10.9386L187.589 8.45368L186.114 10.4553L186.759 8.0539L184.759 9.53179L186.083 7.42721L183.737 8.25L185.623 6.62927L183.138 6.72387L185.418 5.73099L183.015 5.08898L185.486 4.81219L183.38 3.49062L185.823 3.9545L184.2 2.07081L186.398 3.23414L185.402 0.955687L187.159 2.71511L186.879 0.244349L188.039 2.44352L188.5 0Z" fill="white"/>
<path d="M106.5 73L106.961 75.4435L108.121 73.2443L107.841 75.7151L109.598 73.9557L108.602 76.2341L110.8 75.0708L109.177 76.9545L111.62 76.4906L109.514 77.8122L111.985 78.089L109.582 78.731L111.862 79.7239L109.377 79.6293L111.263 81.25L108.917 80.4272L110.241 82.5318L108.241 81.0539L108.886 83.4553L107.411 81.4537L107.32 83.9386L106.5 81.591L105.68 83.9386L105.589 81.4537L104.114 83.4553L104.759 81.0539L102.759 82.5318L104.083 80.4272L101.737 81.25L103.623 79.6293L101.138 79.7239L103.418 78.731L101.015 78.089L103.486 77.8122L101.38 76.4906L103.823 76.9545L102.2 75.0708L104.398 76.2341L103.402 73.9557L105.159 75.7151L104.879 73.2443L106.039 75.4435L106.5 73Z" fill="white"/>
<path d="M91.5 49L91.9607 51.4435L93.1212 49.2443L92.8411 51.7151L94.5983 49.9557L93.6024 52.2341L95.8001 51.0708L94.1769 52.9545L96.6198 52.4906L94.5135 53.8122L96.9846 54.089L94.5824 54.731L96.8621 55.7239L94.3773 55.6293L96.2631 57.25L93.9166 56.4272L95.2409 58.5318L93.2412 57.0539L93.8864 59.4553L92.4111 57.4537L92.3197 59.9386L91.5 57.591L90.6803 59.9386L90.5889 57.4537L89.1136 59.4553L89.7588 57.0539L87.759 58.5318L89.0834 56.4272L86.7369 57.25L88.6227 55.6293L86.1379 55.7239L88.4176 54.731L86.0154 54.089L88.4865 53.8122L86.3802 52.4906L88.8231 52.9545L87.1999 51.0708L89.3976 52.2341L88.4017 49.9557L90.1589 51.7151L89.8788 49.2443L91.0393 51.4435L91.5 49Z" fill="white"/>
<path d="M102.5 101L102.961 103.444L104.121 101.244L103.841 103.715L105.598 101.956L104.602 104.234L106.8 103.071L105.177 104.955L107.62 104.491L105.514 105.812L107.985 106.089L105.582 106.731L107.862 107.724L105.377 107.629L107.263 109.25L104.917 108.427L106.241 110.532L104.241 109.054L104.886 111.455L103.411 109.454L103.32 111.939L102.5 109.591L101.68 111.939L101.589 109.454L100.114 111.455L100.759 109.054L98.759 110.532L100.083 108.427L97.7369 109.25L99.6227 107.629L97.1379 107.724L99.4176 106.731L97.0154 106.089L99.4865 105.812L97.3802 104.491L99.8231 104.955L98.1999 103.071L100.398 104.234L99.4017 101.956L101.159 103.715L100.879 101.244L102.039 103.444L102.5 101Z" fill="white"/>
<path d="M129.5 116L129.961 118.444L131.121 116.244L130.841 118.715L132.598 116.956L131.602 119.234L133.8 118.071L132.177 119.955L134.62 119.491L132.514 120.812L134.985 121.089L132.582 121.731L134.862 122.724L132.377 122.629L134.263 124.25L131.917 123.427L133.241 125.532L131.241 124.054L131.886 126.455L130.411 124.454L130.32 126.939L129.5 124.591L128.68 126.939L128.589 124.454L127.114 126.455L127.759 124.054L125.759 125.532L127.083 123.427L124.737 124.25L126.623 122.629L124.138 122.724L126.418 121.731L124.015 121.089L126.486 120.812L124.38 119.491L126.823 119.955L125.2 118.071L127.398 119.234L126.402 116.956L128.159 118.715L127.879 116.244L129.039 118.444L129.5 116Z" fill="white"/>
<path d="M68.5 107L68.9607 109.444L70.1212 107.244L69.8411 109.715L71.5983 107.956L70.6024 110.234L72.8001 109.071L71.1769 110.955L73.6198 110.491L71.5135 111.812L73.9846 112.089L71.5824 112.731L73.8621 113.724L71.3773 113.629L73.2631 115.25L70.9166 114.427L72.2409 116.532L70.2412 115.054L70.8864 117.455L69.4111 115.454L69.3197 117.939L68.5 115.591L67.6803 117.939L67.5889 115.454L66.1136 117.455L66.7588 115.054L64.759 116.532L66.0834 114.427L63.7369 115.25L65.6227 113.629L63.1379 113.724L65.4176 112.731L63.0154 112.089L65.4865 111.812L63.3802 110.491L65.8231 110.955L64.1999 109.071L66.3976 110.234L65.4017 107.956L67.1589 109.715L66.8788 107.244L68.0393 109.444L68.5 107Z" fill="white"/>
</svg>
